<svg width="24" height="24" viewBox="0 0 24 24" fill="none" xmlns="http://www.w3.org/2000/svg">
<path d="M9.1875 8.58752H10.3125V17.5875H9.1875V8.58752Z" fill="#134563"/>
<path d="M11.4375 8.58752H12.5625V17.5875H11.4375V8.58752Z" fill="#134563"/>
<path d="M13.6875 8.58752H14.8125V17.5875H13.6875V8.58752Z" fill="#134563"/>
<path d="M4.6875 5.21252H19.3125V6.33752H4.6875V5.21252Z" fill="#134563"/>
<path d="M14.7751 5.775H13.7251V4.65C13.7251 4.3125 13.4626 4.05 13.1251 4.05H10.8751C10.5376 4.05 10.2751 4.3125 10.2751 4.65V5.775H9.2251V4.65C9.2251 3.75 9.9751 3 10.8751 3H13.1251C14.0251 3 14.7751 3.75 14.7751 4.65V5.775Z" fill="#134563"/>
<path d="M15.375 20.9625H8.625C7.725 20.9625 6.9375 20.2125 6.8625 19.3125L5.8125 5.81255L6.9375 5.73755L7.9875 19.2375C8.025 19.575 8.325 19.8375 8.625 19.8375H15.375C15.7125 19.8375 16.0125 19.5375 16.0125 19.2375L17.0625 5.73755L18.1875 5.81255L17.1375 19.3125C17.0625 20.25 16.275 20.9625 15.375 20.9625Z" fill="#134563"/>
</svg>
